<?xml version="1.0" encoding="utf-8"?>
<!-- Generator: Adobe Illustrator 27.6.1, SVG Export Plug-In . SVG Version: 6.00 Build 0)  -->
<svg version="1.1" id="Layer_1" xmlns="http://www.w3.org/2000/svg" xmlns:xlink="http://www.w3.org/1999/xlink" x="0px" y="0px"
	 viewBox="0 0 1440 900" style="enable-background:new 0 0 1440 900;" xml:space="preserve">
<style type="text/css">
	.st0{display:none;fill:#FFFFFF;stroke:#231F20;stroke-miterlimit:10;}
	.st1{fill:#16A34A;}
	.st2{display:none;}
	.st3{display:inline;}
	.st4{fill:#FFFFFF;}
</style>
<rect y="-4.02" class="st0" width="1440" height="900"/>
<g>
	<g>
		<g>
			<g>
				<path class="st1" d="M1246.47,568.53c-16.5-13.53-35.46-24.14-56.08-31.16c-18.28-6.23-37.87-9.65-58.26-9.65
					c-59.8,0-112.81,29.08-145.68,73.86c-21.95,29.89-34.92,66.78-34.92,106.71c0,5.85,0.27,11.66,0.83,17.35
					c8.73,91.6,85.89,163.24,179.76,163.24c99.73,0,180.59-80.84,180.59-180.59C1312.72,651.95,1286.92,601.64,1246.47,568.53z
					 M1132.13,811.48c-51.07,0-93.48-37.11-101.73-85.84c0,0,0,0,0,0h0c-0.95-5.64-1.45-11.44-1.45-17.35
					c0-56.98,46.2-103.19,103.19-103.19s103.19,46.2,103.19,103.19c0,4.54-0.3,9.02-0.87,13.41c-0.17,1.32-0.36,2.64-0.59,3.94
					C1225.61,774.37,1183.2,811.48,1132.13,811.48z"/>
				<path class="st1" d="M1319.09,524.47c-19.93-22.73-42.92-41.55-67.96-55.87V390c0-30.14-24.42-54.54-54.56-54.54h-92.98v-23.79
					c9.1-3.5,15.6-12.34,15.6-22.64v-59.95c0-9.26-5.26-17.34-12.94-21.42c-11.7-24.9-36.9-42.21-66.17-42.5v18
					c18.62,0.24,35.02,9.6,45,23.8c-8.45,3.8-14.38,12.3-14.38,22.13v59.95c0,10.35,6.57,19.23,15.74,22.69v23.73H887.89
					l-114.12-85.85l25.54-33.52c5.49-7.2,4.08-17.58-3.12-23.07c-7.2-5.49-17.58-4.08-23.07,3.12l-69.06,90.63
					c-5.49,7.2-4.08,17.58,3.12,23.07c7.2,5.49,17.58,4.08,23.07-3.12l27.82-36.52l86.75,65.26H630.56V74.09h75.03
					c8.5,0,12.77-10.29,6.75-16.31c-9.36-9.36-18.7-18.7-28.07-28.07c-11.91-11.91-28.07-18.6-44.92-18.6H419.85
					c-46.81,0-85.28,36.93-87.2,83.7l-8.87,218.69l0,0.01c-48.99,8.36-96.46,28.3-138.11,58.85C110.74,427.27,62,511.3,51.91,602.89
					c-1.38,12.43,7.6,23.63,20.03,25.01c12.41,1.36,23.63-7.62,24.99-20.03c8.69-79.02,50.81-151.54,115.51-198.97
					c35.7-26.15,76.27-43.32,118.08-50.59c0.01,0,0.01,0,0.02,0c0.03-0.01,0.05-0.01,0.08-0.01c0.02,0,0.03-0.01,0.05-0.01
					c13.74-2.42,27.62-3.76,41.51-3.97h0.11c18.3-0.3,36.63,1.3,54.67,4.9c30,5.94,58.64,17.25,84.79,33.1
					c38.3,23.26,71.3,56.27,95.35,96.48c41.57,69.52,51.99,153.35,28.55,230.06c-0.42,1.41-0.71,2.84-0.86,4.27h46.78h193.07H902
					c5.26-3.99,8.75-10.23,8.98-17.35c2.05-65.6,31.58-127.73,81.01-170.51c46.06-39.82,104.61-58.97,160.6-52.59
					c36.2,4.11,69.9,18.5,98.54,40.21c54.28,41.16,90.54,108.61,91.79,182.57c0.23,12.52,10.65,22.48,23.05,22.27
					c12.5-0.23,22.48-10.53,22.26-23.05C1387.09,638.11,1362.53,574.09,1319.09,524.47z M550.37,74.09h46.72v261.37h-81.73
					c-4.82-69.45-9.64-138.89-14.46-208.36C498.92,98.43,521.63,74.09,550.37,74.09z M646.49,476.04c-6.72,0-12.17-5.45-12.17-12.17
					c0-3.37,1.36-6.4,3.56-8.61c0.34-0.34,0.69-0.65,1.06-0.93c2.06-1.64,4.69-2.63,7.55-2.63h275c6.72,0,12.17,5.45,12.17,12.17
					c0,3.37-1.36,6.4-3.56,8.61c-2.2,2.2-5.24,3.56-8.61,3.56H651.97H646.49z M903.21,587.48c-2.33,2.35-5.56,3.79-9.1,3.79h-0.72
					H749.24c-7.11,0-12.86-5.8-12.86-12.96c0-3.58,1.43-6.82,3.76-9.17c2.33-2.35,5.56-3.79,9.1-3.79h144.87
					c4.23,0,7.99,2.06,10.32,5.24c1.6,2.15,2.56,4.83,2.56,7.72C906.99,581.89,905.54,585.13,903.21,587.48z"/>
				<path class="st1" d="M505.39,442.8L505.39,442.8c-38.7-26.86-85.69-42.61-136.37-42.61c-132.24,0-239.46,107.21-239.46,239.47
					s107.21,239.48,239.46,239.48c106.75,0,197.18-69.84,228.06-166.3h-91.7v0h91.7c7.41-23.06,11.4-47.64,11.4-73.17
					C608.49,558.1,567.7,486.03,505.39,442.8z M369.02,776.51c-75.57,0-136.84-61.26-136.84-136.84s61.26-136.84,136.84-136.84
					c71.68,0,130.47,55.09,136.36,125.22v0.08v23.06v0.08C499.49,721.41,440.69,776.51,369.02,776.51z"/>
				<path class="st1" d="M357.22,665.59c2.29,5.81,4.99,10.83,7.68,15.07l2.31-0.59c16.09-13.19,19.59-24.1,19.63-31.81
					c0.08-13.67-10.64-29.69-17.28-47.52c-0.81-2.19-2.4-6.64-3.44-12.6c-0.57-3.25-0.78-5.91-0.88-7.43
					c-3.79,2.75-9.34,7.23-14.92,13.74c-5.93,6.92-28.04,32.72-19.64,59.69c5.71,18.34,22.55,27.64,28.67,30.63
					c1.65,3.21,4.48,7.65,9.23,11.58c1.76,1.46,3.5,2.62,5.1,3.53c1.8-1.78,3.6-3.57,5.4-5.35c-4.41-1.3-7.95-3.16-10.79-5.17
					c-26.04-18.42-17.25-66.18-16.55-69.75C350.44,630.01,349.9,647.06,357.22,665.59z"/>
				<path class="st1" d="M1126.98,688.51c-2.25-5.71-4.9-10.63-7.54-14.8l-2.26,0.58c-15.8,12.95-19.23,23.65-19.27,31.22
					c-0.08,13.42,10.44,29.14,16.96,46.64c0.8,2.15,2.36,6.52,3.38,12.37c0.56,3.19,0.77,5.8,0.86,7.29
					c3.72-2.7,9.17-7.09,14.65-13.49c5.82-6.79,27.52-32.12,19.27-58.59c-5.61-18-22.13-27.13-28.14-30.07
					c-1.62-3.16-4.4-7.51-9.06-11.37c-1.73-1.44-3.44-2.57-5.01-3.47c-1.77,1.75-3.53,3.5-5.3,5.25c4.33,1.28,7.8,3.1,10.59,5.08
					c25.56,18.08,16.94,64.96,16.25,68.47C1133.62,723.44,1134.15,706.71,1126.98,688.51z"/>
			</g>
		</g>
	</g>
</g>
<g class="st2">
	<g class="st3">
		<g>
			<g>
				<path class="st4" d="M1246.47,568.53c-16.5-13.53-35.46-24.14-56.08-31.16c-18.28-6.23-37.87-9.65-58.26-9.65
					c-59.8,0-112.81,29.08-145.68,73.86c-21.95,29.89-34.92,66.78-34.92,106.71c0,5.85,0.27,11.66,0.83,17.35
					c8.73,91.6,85.89,163.24,179.76,163.24c99.73,0,180.59-80.84,180.59-180.59C1312.72,651.95,1286.92,601.64,1246.47,568.53z
					 M1132.13,811.48c-51.07,0-93.48-37.11-101.73-85.84c0,0,0,0,0,0h0c-0.95-5.64-1.45-11.44-1.45-17.35
					c0-56.98,46.2-103.19,103.19-103.19s103.19,46.2,103.19,103.19c0,4.54-0.3,9.02-0.87,13.41c-0.17,1.32-0.36,2.64-0.59,3.94
					C1225.61,774.37,1183.2,811.48,1132.13,811.48z"/>
				<path class="st4" d="M1319.09,524.47c-19.93-22.73-42.92-41.55-67.96-55.87V390c0-30.14-24.42-54.54-54.56-54.54h-92.98v-23.79
					c9.1-3.5,15.6-12.34,15.6-22.64v-59.95c0-9.26-5.26-17.34-12.94-21.42c-11.7-24.9-36.9-42.21-66.17-42.5v18
					c18.62,0.24,35.02,9.6,45,23.8c-8.45,3.8-14.38,12.3-14.38,22.13v59.95c0,10.35,6.57,19.23,15.74,22.69v23.73H887.89
					l-114.12-85.85l25.54-33.52c5.49-7.2,4.08-17.58-3.12-23.07c-7.2-5.49-17.58-4.08-23.07,3.12l-69.06,90.63
					c-5.49,7.2-4.08,17.58,3.12,23.07c7.2,5.49,17.58,4.08,23.07-3.12l27.82-36.52l86.75,65.26H630.56V74.09h75.03
					c8.5,0,12.77-10.29,6.75-16.31c-9.36-9.36-18.7-18.7-28.07-28.07c-11.91-11.91-28.07-18.6-44.92-18.6H419.85
					c-46.81,0-85.28,36.93-87.2,83.7l-8.87,218.69l0,0.01c-48.99,8.36-96.46,28.3-138.11,58.85C110.74,427.27,62,511.3,51.91,602.89
					c-1.38,12.43,7.6,23.63,20.03,25.01c12.41,1.36,23.63-7.62,24.99-20.03c8.69-79.02,50.81-151.54,115.51-198.97
					c35.7-26.15,76.27-43.32,118.08-50.59c0.01,0,0.01,0,0.02,0c0.03-0.01,0.05-0.01,0.08-0.01c0.02,0,0.03-0.01,0.05-0.01
					c13.74-2.42,27.62-3.76,41.51-3.97h0.11c18.3-0.3,36.63,1.3,54.67,4.9c30,5.94,58.64,17.25,84.79,33.1
					c38.3,23.26,71.3,56.27,95.35,96.48c41.57,69.52,51.99,153.35,28.55,230.06c-0.42,1.41-0.71,2.84-0.86,4.27h46.78h193.07H902
					c5.26-3.99,8.75-10.23,8.98-17.35c2.05-65.6,31.58-127.73,81.01-170.51c46.06-39.82,104.61-58.97,160.6-52.59
					c36.2,4.11,69.9,18.5,98.54,40.21c54.28,41.16,90.54,108.61,91.79,182.57c0.23,12.52,10.65,22.48,23.05,22.27
					c12.5-0.23,22.48-10.53,22.26-23.05C1387.09,638.11,1362.53,574.09,1319.09,524.47z M550.37,74.09h46.72v261.37h-81.73
					c-4.82-69.45-9.64-138.89-14.46-208.36C498.92,98.43,521.63,74.09,550.37,74.09z M646.49,476.04c-6.72,0-12.17-5.45-12.17-12.17
					c0-3.37,1.36-6.4,3.56-8.61c0.34-0.34,0.69-0.65,1.06-0.93c2.06-1.64,4.69-2.63,7.55-2.63h275c6.72,0,12.17,5.45,12.17,12.17
					c0,3.37-1.36,6.4-3.56,8.61c-2.2,2.2-5.24,3.56-8.61,3.56H651.97H646.49z M903.21,587.48c-2.33,2.35-5.56,3.79-9.1,3.79h-0.72
					H749.24c-7.11,0-12.86-5.8-12.86-12.96c0-3.58,1.43-6.82,3.76-9.17c2.33-2.35,5.56-3.79,9.1-3.79h144.87
					c4.23,0,7.99,2.06,10.32,5.24c1.6,2.15,2.56,4.83,2.56,7.72C906.99,581.89,905.54,585.13,903.21,587.48z"/>
				<path class="st4" d="M505.39,442.8L505.39,442.8c-38.7-26.86-85.69-42.61-136.37-42.61c-132.24,0-239.46,107.21-239.46,239.47
					s107.21,239.48,239.46,239.48c106.75,0,197.18-69.84,228.06-166.3h-91.7v0h91.7c7.41-23.06,11.4-47.64,11.4-73.17
					C608.49,558.1,567.7,486.03,505.39,442.8z M369.02,776.51c-75.57,0-136.84-61.26-136.84-136.84s61.26-136.84,136.84-136.84
					c71.68,0,130.47,55.09,136.36,125.22v0.08v23.06v0.08C499.49,721.41,440.69,776.51,369.02,776.51z"/>
				<path class="st4" d="M357.22,665.59c2.29,5.81,4.99,10.83,7.68,15.07l2.31-0.59c16.09-13.19,19.59-24.1,19.63-31.81
					c0.08-13.67-10.64-29.69-17.28-47.52c-0.81-2.19-2.4-6.64-3.44-12.6c-0.57-3.25-0.78-5.91-0.88-7.43
					c-3.79,2.75-9.34,7.23-14.92,13.74c-5.93,6.92-28.04,32.72-19.64,59.69c5.71,18.34,22.55,27.64,28.67,30.63
					c1.65,3.21,4.48,7.65,9.23,11.58c1.76,1.46,3.5,2.62,5.1,3.53c1.8-1.78,3.6-3.57,5.4-5.35c-4.41-1.3-7.95-3.16-10.79-5.17
					c-26.04-18.42-17.25-66.18-16.55-69.75C350.44,630.01,349.9,647.06,357.22,665.59z"/>
				<path class="st4" d="M1126.98,688.51c-2.25-5.71-4.9-10.63-7.54-14.8l-2.26,0.58c-15.8,12.95-19.23,23.65-19.27,31.22
					c-0.08,13.42,10.44,29.14,16.96,46.64c0.8,2.15,2.36,6.52,3.38,12.37c0.56,3.19,0.77,5.8,0.86,7.29
					c3.72-2.7,9.17-7.09,14.65-13.49c5.82-6.79,27.52-32.12,19.27-58.59c-5.61-18-22.13-27.13-28.14-30.07
					c-1.62-3.16-4.4-7.51-9.06-11.37c-1.73-1.44-3.44-2.57-5.01-3.47c-1.77,1.75-3.53,3.5-5.3,5.25c4.33,1.28,7.8,3.1,10.59,5.08
					c25.56,18.08,16.94,64.96,16.25,68.47C1133.62,723.44,1134.15,706.71,1126.98,688.51z"/>
			</g>
		</g>
	</g>
</g>
</svg>
